{
  "accessors": [
    {
      "bufferView": 2,
      "componentType": 5126,
      "count": 516,
      "max": [
        1.0,
        0.9807853698730469,
        1.0397080183029175
      ],
      "min": [
        -0.9999999403953552,
        -0.003266759682446718,
        -0.9999998807907104
      ],
      "type": "VEC3"
    },
    {
      "bufferView": 2,
      "byteOffset": 6192,
      "componentType": 5126,
      "count": 516,
      "max": [
        0.9980976581573486,
        1.0,
        0.9999852776527405
      ],
      "min": [
        -0.9983024597167969,
        -1.0,
        -0.9953409433364868
      ],
      "type": "VEC3"
    },
    {
      "bufferView": 3,
      "componentType": 5126,
      "count": 516,
      "max": [
        0.9999495148658752,
        0.995340883731842,
        1.0,
        1.0
      ],
      "min": [
        -0.9999501705169678,
        -0.9999726414680481,
        -0.999799370765686,
        1.0
      ],
      "type": "VEC4"
    },
    {
      "bufferView": 1,
      "componentType": 5126,
      "count": 516,
      "max": [
        0.9997955560684204,
        0.9358950257301331
      ],
      "min": [
        0.00020440264779608697,
        0.00020440264779608697
      ],
      "type": "VEC2"
    },
    {
      "bufferView": 0,
      "componentType": 5125,
      "count": 2556,
      "type": "SCALAR"
    },
    {
      "bufferView": 2,
      "byteOffset": 12384,
      "componentType": 5126,
      "count": 98,
      "max": [
        1.0,
        0.050164032727479935,
        1.0
      ],
      "min": [
        -1.0,
        -0.0005828998982906342,
        -1.0
      ],
      "type": "VEC3"
    },
    {
      "bufferView": 2,
      "byteOffset": 13560,
      "componentType": 5126,
      "count": 98,
      "max": [
        0.06245993822813034,
        1.0,
        0.12443537265062332
      ],
      "min": [
        -0.12443536520004272,
        0.9922277331352234,
        -0.12443536520004272
      ],
      "type": "VEC3"
    },
    {
      "bufferView": 3,
      "byteOffset": 8256,
      "componentType": 5126,
      "count": 98,
      "max": [
        0.009543959982693195,
        0.12443532794713974,
        1.0,
        1.0
      ],
      "min": [
        -0.004890901502221823,
        -0.12443536520004272,
        0.9921826124191284,
        1.0
      ],
      "type": "VEC4"
    },
    {
      "bufferView": 1,
      "byteOffset": 4128,
      "componentType": 5126,
      "count": 98,
      "max": [
        0.9999000430107117,
        0.9986429214477539
      ],
      "min": [
        9.991715342039242e-05,
        9.991715342039242e-05
      ],
      "type": "VEC2"
    },
    {
      "bufferView": 0,
      "byteOffset": 10224,
      "componentType": 5125,
      "count": 150,
      "type": "SCALAR"
    }
  ],
  "asset": {
    "extras": {
      "author": "Vera4Art (https://sketchfab.com/Elvera.Viljoen)",
      "license": "CC-BY-4.0 (http://creativecommons.org/licenses/by/4.0/)",
      "source": "https://sketchfab.com/3d-models/igloo-224f673917e6486eb08c496baf77ce84",
      "title": "Igloo"
    },
    "generator": "Sketchfab-14.60.0",
    "version": "2.0"
  },
  "bufferViews": [
    {
      "buffer": 0,
      "byteLength": 10824,
      "name": "floatBufferViews",
      "target": 34963
    },
    {
      "buffer": 0,
      "byteLength": 4912,
      "byteOffset": 10824,
      "byteStride": 8,
      "name": "floatBufferViews",
      "target": 34962
    },
    {
      "buffer": 0,
      "byteLength": 14736,
      "byteOffset": 15736,
      "byteStride": 12,
      "name": "floatBufferViews",
      "target": 34962
    },
    {
      "buffer": 0,
      "byteLength": 9824,
      "byteOffset": 30472,
      "byteStride": 16,
      "name": "floatBufferViews",
      "target": 34962
    }
  ],
  "buffers": [
    {
      "byteLength": 40296,
      "uri": "scene.bin"
    }
  ],
  "images": [
    {
      "uri": "textures/Igoo_mix_baseColor.jpeg"
    },
    {
      "uri": "textures/Igoo_mix_metallicRoughness.png"
    },
    {
      "uri": "textures/Igoo_mix_normal.png"
    },
    {
      "uri": "textures/Snow_normal.jpeg"
    }
  ],
  "materials": [
    {
      "doubleSided": true,
      "name": "Igoo_mix",
      "normalTexture": {
        "index": 2
      },
      "occlusionTexture": {
        "index": 1
      },
      "pbrMetallicRoughness": {
        "baseColorTexture": {
          "index": 0
        },
        "metallicFactor": 0.0,
        "metallicRoughnessTexture": {
          "index": 1
        }
      }
    },
    {
      "doubleSided": true,
      "name": "Snow",
      "normalTexture": {
        "index": 3
      },
      "occlusionTexture": {
        "index": 1
      },
      "pbrMetallicRoughness": {
        "baseColorTexture": {
          "index": 0
        },
        "metallicFactor": 0.0,
        "metallicRoughnessTexture": {
          "index": 1
        }
      }
    }
  ],
  "meshes": [
    {
      "name": "Object_0",
      "primitives": [
        {
          "attributes": {
            "NORMAL": 1,
            "POSITION": 0,
            "TANGENT": 2,
            "TEXCOORD_0": 3
          },
          "indices": 4,
          "material": 0,
          "mode": 4
        }
      ]
    },
    {
      "name": "Object_1",
      "primitives": [
        {
          "attributes": {
            "NORMAL": 6,
            "POSITION": 5,
            "TANGENT": 7,
            "TEXCOORD_0": 8
          },
          "indices": 9,
          "material": 1,
          "mode": 4
        }
      ]
    }
  ],
  "nodes": [
    {
      "children": [
        1
      ],
      "matrix": [
        1.0,
        0.0,
        0.0,
        0.0,
        0.0,
        2.220446049250313e-16,
        -1.0,
        0.0,
        0.0,
        1.0,
        2.220446049250313e-16,
        0.0,
        0.0,
        0.0,
        0.0,
        1.0
      ],
      "name": "Sketchfab_model"
    },
    {
      "children": [
        2
      ],
      "name": "root"
    },
    {
      "children": [
        3,
        5
      ],
      "matrix": [
        1.0,
        0.0,
        0.0,
        0.0,
        0.0,
        2.220446049250313e-16,
        1.0,
        0.0,
        0.0,
        -1.0,
        2.220446049250313e-16,
        0.0,
        0.0,
        0.0,
        0.0,
        1.0
      ],
      "name": "GLTF_SceneRootNode"
    },
    {
      "children": [
        4
      ],
      "name": "igloo_0"
    },
    {
      "mesh": 0,
      "name": "Object_4"
    },
    {
      "children": [
        6
      ],
      "matrix": [
        1.7080599069595337,
        0.0,
        0.0,
        0.0,
        0.0,
        1.7080599069595337,
        0.0,
        0.0,
        0.0,
        0.0,
        1.7080599069595337,
        0.0,
        0.0,
        0.0,
        0.0,
        1.0
      ],
      "name": "ground_1"
    },
    {
      "mesh": 1,
      "name": "Object_6"
    }
  ],
  "samplers": [
    {
      "magFilter": 9729,
      "minFilter": 9987,
      "wrapS": 10497,
      "wrapT": 10497
    }
  ],
  "scene": 0,
  "scenes": [
    {
      "name": "Sketchfab_Scene",
      "nodes": [
        0
      ]
    }
  ],
  "textures": [
    {
      "sampler": 0,
      "source": 0
    },
    {
      "sampler": 0,
      "source": 1
    },
    {
      "sampler": 0,
      "source": 2
    },
    {
      "sampler": 0,
      "source": 3
    }
  ]
}
